<?xml version="1.0" encoding="UTF-8" standalone="no"?>
<!-- Created with Inkscape (http://www.inkscape.org/) -->

<svg
   version="1.1"
   id="svg1"
   width="1024"
   height="256"
   viewBox="380 0 256 256"
   sodipodi:docname="NexPit_txt.svg"
   inkscape:version="1.4.2 (ebf0e940, 2025-05-08)"
   inkscape:export-filename="NexPit.svg.png"
   inkscape:export-xdpi="96"
   inkscape:export-ydpi="96"
   xmlns:inkscape="http://www.inkscape.org/namespaces/inkscape"
   xmlns:sodipodi="http://sodipodi.sourceforge.net/DTD/sodipodi-0.dtd"
   xmlns="http://www.w3.org/2000/svg"
   xmlns:svg="http://www.w3.org/2000/svg">
  <sodipodi:namedview
     id="namedview1"
     pagecolor="#ffffff"
     bordercolor="#000000"
     borderopacity="0.25"
     inkscape:showpageshadow="2"
     inkscape:pageopacity="0.0"
     inkscape:pagecheckerboard="true"
     inkscape:deskcolor="#d1d1d1"
     showgrid="false"
     inkscape:zoom="0.63275404"
     inkscape:cx="442.51002"
     inkscape:cy="525.48064"
     inkscape:window-width="1712"
     inkscape:window-height="1044"
     inkscape:window-x="0"
     inkscape:window-y="35"
     inkscape:window-maximized="1"
     inkscape:current-layer="layer4">
    <inkscape:page
       x="0"
       y="0"
       width="1024"
       height="1024"
       id="page2"
       margin="0"
       bleed="0" />
  </sodipodi:namedview>
  <defs
     id="defs1" />
  <g
     inkscape:groupmode="layer"
     id="layer4"
     inkscape:label="Layer 2"
     style="display:inline"
     transform="translate(2.0914205,-747.19424)">
    <path
       style="fill:#00f6f1;fill-opacity:1;stroke-width:0.139527"
       d="m 497.93513,928.51688 -18.80443,-18.80482 9.77704,-9.75648 9.77704,-9.75648 28.45679,28.45652 c 15.65123,15.65109 28.45678,28.50368 28.45678,28.5613 0,0.0576 -8.74323,0.10478 -19.42939,0.10478 h -19.4294 z"
       id="path50" />
    <path
       style="fill:#ffffff;fill-opacity:1;stroke-width:0.841669"
       d="m 450.30972,875.32069 72.03529,-72.09244 20.31258,-0.23148 20.88414,0.11151 -23.43666,23.83178 c -12.56256,12.77435 -44.61616,45.01879 -71.13093,71.75231 l -48.20866,48.6064 h -21.21695 -21.21694 z"
       id="path53"
       sodipodi:nodetypes="ccccsscccc" />
    <path
       style="fill:#ffffff;fill-opacity:1;stroke-width:0.139109"
       d="m 227.1824,875.33448 0.006,-72.09709 59.97395,-0.0265 60.0323,0.0282 0.011,5.26099 c 0.002,0.75236 -10e-4,0.81524 -0.003,7.64094 l -0.004,16.10584 c -23.68221,0.34581 -52.4404,-0.0116 -88.99054,-0.003 v 14.37582 l -0.0201,16.60635 36.56396,-0.0291 35.92322,0.0471 -12.51599,12.53595 c -7.39459,7.40638 -14.13908,14.27581 -14.37549,14.42197 -0.41743,0.25807 -0.80961,0.0394 -22.84781,0.0399 l -22.73966,5.2e-4 v 15.12746 l 0.0119,14.43645 h 44.8201 c 24.65106,0 44.91844,0.0382 45.03863,0.0851 0.19722,0.0767 0.21853,1.42267 0.21853,13.79681 v 13.71178 h -60.71956 l -60.45015,-0.0673 z"
       id="path66"
       sodipodi:nodetypes="ccccssccccccssscccscscccc" />
    <path
       style="fill:#ffffff;fill-opacity:1;stroke-width:0.138155"
       d="m 430.72236,862.05808 c -9.94711,-9.46635 -59.30076,-58.51602 -59.14015,-58.7759 0.0797,-0.12889 41.90738,-0.16419 42.24235,-0.0356 0.25299,0.0971 27.29136,27.35117 31.31184,31.56166 3.43059,3.59272 5.91359,6.28762 6.64047,7.20719 0.51141,0.647 0.52976,0.70301 0.3449,1.05305 -0.64517,1.22169 -12.52629,13.85268 -16.31085,17.3403 -1.93467,1.78287 -3.29332,2.85471 -3.61859,2.85471 -0.11186,0 -0.77335,-0.54242 -1.46997,-1.20537 z"
       id="path67" />
    <path
       style="fill:#ffffff;fill-opacity:1;stroke-width:0.200152"
       d="m 595.05155,875.26418 v -72.15475 l 35.47692,0.006 c 47.7373,0.008 60.49476,0.22588 70.40342,1.20426 7.78828,0.76901 9.82569,1.27506 14.59396,3.62479 5.21969,2.5722 9.43378,5.61029 13.83819,9.97649 3.70198,3.66986 7.10354,8.04611 8.66648,11.14978 6.47574,12.85951 6.98357,32.40093 1.19908,46.14126 -3.4316,8.15135 -10.69264,15.42336 -20.98907,21.02078 -4.59,2.49525 -7.34013,3.47309 -12.74593,4.53195 -3.41034,0.668 -6.42309,0.91764 -14.67038,1.21561 -7.5429,0.27252 -51.51885,1.00131 -60.59598,1.00422 l -2.95224,9.5e-4 v 22.21686 22.21686 h -16.11223 -16.11222 z m 103.92785,-4.92384 c 3.97349,-2.098 6.11177,-3.54157 7.97277,-5.38248 2.32782,-2.30268 3.56083,-4.45966 4.4058,-7.70735 0.39807,-1.52999 0.4695,-2.29889 0.47418,-5.10387 0.005,-2.83472 -0.0597,-3.54195 -0.45511,-4.99296 -1.42678,-5.23618 -4.82988,-8.92626 -10.9108,-11.83088 -6.15424,-2.93964 -11.23894,-3.30083 -49.58919,-3.52253 l -23.33456,-0.13489 -0.13306,11.89188 c -0.16717,14.94005 -0.16802,24.02624 -0.002,26.15299 l 0.12857,1.65153 0.79396,0.21379 c 1.65311,0.44514 7.10459,0.52776 36.7261,0.55659 l 30.47404,0.0297 z"
       id="path71" />
    <path
       style="fill:#ffffff;fill-opacity:1;stroke-width:0.200152"
       d="m 770.03406,875.31422 0.0503,-72.10471 h 15.61185 15.61184 l 0.0503,72.10471 0.0503,72.10472 H 785.69618 769.9837 Z"
       id="path72" />
    <path
       style="fill:#ffffff;fill-opacity:1;stroke-width:0.200152"
       d="m 887.07314,890.05949 v -57.21925 l -14.96135,-0.13155 c -8.22874,-0.0724 -21.04097,-0.19582 -28.4716,-0.27437 l -13.51026,-0.14283 -0.1615,-14.38702 c -0.0888,-7.91285 -0.11417,-14.51036 -0.0563,-14.66112 0.0888,-0.23133 11.21005,-0.27411 71.26546,-0.27411 h 71.16028 l -0.003,14.46097 c -10e-4,7.95354 -0.057,14.66363 -0.12342,14.91132 l -0.12068,0.45034 h -25.5961 -25.5961 v 57.24344 57.24344 H 903.98574 887.0729 Z"
       id="path73" />
    <path
       style="fill:#ffffff;stroke-width:0.170015"
       d="m 47.52554,946.91213 c -0.0636,-0.2536 -0.0613,-32.6711 0.005,-72.03902 0.0936,-55.39252 0.16704,-71.60733 0.32499,-71.70773 0.11226,-0.0714 7.98157,-0.13091 17.48737,-0.13235 l 17.28327,-0.003 0.74022,0.82331 c 1.48919,1.65633 5.79196,6.99416 29.62377,36.75 13.36821,16.69122 26.06665,32.52811 28.21877,35.19309 9.08443,11.24931 15.14838,18.44581 17.11951,20.31681 l 1.07467,1.0201 0.13729,-0.5951 c 0.21712,-0.941 0.45758,-23.62767 0.63416,-59.82993 0.13209,-27.0793 0.20468,-33.41914 0.38394,-33.53285 0.25138,-0.15946 32.26672,-0.20083 32.68001,-0.0422 0.24452,0.0938 0.26893,5.55264 0.26893,60.15723 0,33.02975 -0.0509,65.46584 -0.11306,72.08024 l -0.11306,12.0261 -16.1973,-0.054 -16.19729,-0.055 -0.54417,-0.51 c -0.89037,-0.8346 -4.73527,-5.3688 -16.61345,-19.5919 -6.18769,-7.4092 -15.71148,-18.7705 -21.16398,-25.24719 -5.4525,-6.4768 -14.57206,-17.3226 -20.26568,-24.102 -13.42119,-15.98049 -20.19493,-23.98566 -20.24966,-23.93093 -0.0241,0.0242 -0.12677,16.45459 -0.22802,36.51213 -0.10125,20.05749 -0.23154,41.07769 -0.28952,46.71149 l -0.10543,10.2434 H 64.53392 47.64105 Z"
       id="path3" />
  </g>
</svg>
