<?xml version="1.0" encoding="UTF-8" standalone="no"?>
<!-- Created with Inkscape (http://www.inkscape.org/) -->

<svg
   version="1.1"
   id="svg1"
   width="1024"
   height="1024"
   viewBox="0 0 1024 1024"
   sodipodi:docname="NexPit_N.svg"
   inkscape:version="1.4.2 (ebf0e940, 2025-05-08)"
   inkscape:export-filename="NexPit_N.png"
   inkscape:export-xdpi="96"
   inkscape:export-ydpi="96"
   xmlns:inkscape="http://www.inkscape.org/namespaces/inkscape"
   xmlns:sodipodi="http://sodipodi.sourceforge.net/DTD/sodipodi-0.dtd"
   xmlns:xlink="http://www.w3.org/1999/xlink"
   xmlns="http://www.w3.org/2000/svg"
   xmlns:svg="http://www.w3.org/2000/svg">
  <sodipodi:namedview
     id="namedview1"
     pagecolor="#ffffff"
     bordercolor="#000000"
     borderopacity="0.25"
     inkscape:showpageshadow="2"
     inkscape:pageopacity="0.0"
     inkscape:pagecheckerboard="true"
     inkscape:deskcolor="#d1d1d1"
     showgrid="false"
     inkscape:zoom="0.62706242"
     inkscape:cx="373.16859"
     inkscape:cy="574.90289"
     inkscape:window-width="1712"
     inkscape:window-height="1044"
     inkscape:window-x="0"
     inkscape:window-y="35"
     inkscape:window-maximized="1"
     inkscape:current-layer="layer3">
    <inkscape:page
       x="0"
       y="0"
       width="1024"
       height="1024"
       id="page2"
       margin="0"
       bleed="0" />
  </sodipodi:namedview>
  <defs
     id="defs1">
    <linearGradient
       id="linearGradient62"
       inkscape:collect="always">
      <stop
         style="stop-color:#b900fe;stop-opacity:1;"
         offset="0.33030903"
         id="stop62" />
      <stop
         style="stop-color:#5633fd;stop-opacity:1;"
         offset="0.54941374"
         id="stop1" />
      <stop
         style="stop-color:#00f6f1;stop-opacity:1;"
         offset="0.85802472"
         id="stop63" />
    </linearGradient>
    <linearGradient
       inkscape:collect="always"
       xlink:href="#linearGradient62"
       id="linearGradient63"
       x1="806.22498"
       y1="626.336"
       x2="226.6445"
       y2="153.81012"
       gradientUnits="userSpaceOnUse" />
  </defs>
  <g
     inkscape:groupmode="layer"
     id="layer3"
     inkscape:label="Layer 1">
    <g
       id="g1"
       transform="translate(7.81055,64.25781)">
      <path
         id="path1"
         style="fill:url(#linearGradient63);fill-opacity:1"
         d="m 237.18945,170.24219 v 144.24609 144.24414 l 40.5,-40.49023 40.5,-40.49024 v -62.25586 -62.2539 h 10.75 l 10.75,0.002 114.5,114.49414 c 62.975,62.97179 114.7158,114.49505 114.98047,114.49805 0.26467,0.003 4.65217,-4.14797 9.75,-9.22461 l 9.26953,-9.23047 V 426.63672 389.49219 L 477.8125,279.86719 367.43555,170.24219 H 302.3125 Z m 446,0 v 240.5 240.5 H 665.4375 647.68555 L 531.69727,535.25 415.70898,419.25781 l -10.25976,10.22461 -10.25977,10.22461 v 30.01563 30.01562 L 507.9375,612.49023 620.68555,725.24219 h 75.25195 75.25195 v -277.5 -277.5 h -44 z m -365,291.50976 -40.5,40.49024 -40.5,40.49023 v 91.25586 91.25391 h 40.5 40.5 v -131.7461 z" />
    </g>
  </g>
</svg>
